<svg width="24" height="24" viewBox="0 0 24 24" fill="none" xmlns="http://www.w3.org/2000/svg">
<g clip-path="url(#clip0_12_417)">
<path d="M12 3C7.032 3 3 7.032 3 12C3 16.968 7.032 21 12 21C16.968 21 21 16.968 21 12C21 7.032 16.968 3 12 3ZM7.563 17.652C7.95 16.842 10.308 16.05 12 16.05C13.692 16.05 16.059 16.842 16.437 17.652C15.213 18.624 13.674 19.2 12 19.2C10.326 19.2 8.787 18.624 7.563 17.652ZM17.724 16.347C16.437 14.781 13.314 14.25 12 14.25C10.686 14.25 7.563 14.781 6.276 16.347C5.358 15.141 4.8 13.638 4.8 12C4.8 8.031 8.031 4.8 12 4.8C15.969 4.8 19.2 8.031 19.2 12C19.2 13.638 18.642 15.141 17.724 16.347ZM12 6.6C10.254 6.6 8.85 8.004 8.85 9.75C8.85 11.496 10.254 12.9 12 12.9C13.746 12.9 15.15 11.496 15.15 9.75C15.15 8.004 13.746 6.6 12 6.6ZM12 11.1C11.253 11.1 10.65 10.497 10.65 9.75C10.65 9.003 11.253 8.4 12 8.4C12.747 8.4 13.35 9.003 13.35 9.75C13.35 10.497 12.747 11.1 12 11.1Z" fill="white" fill-opacity="0.87"/>
</g>
<defs>
<clipPath id="clip0_12_417">
<rect width="24" height="24" fill="white"/>
</clipPath>
</defs>
</svg>
