<svg width="21" height="20" viewBox="0 0 21 20" fill="none" xmlns="http://www.w3.org/2000/svg">
<g clip-path="url(#clip0_1_4335)">
<path d="M17.9638 9.65L10.4331 2.15001C10.1319 1.85001 9.71351 1.66667 9.2533 1.66667H3.39609C2.47567 1.66667 1.7226 2.41667 1.7226 3.33334V9.16667C1.7226 9.625 1.90669 10.0417 2.21628 10.35L9.74698 17.85C10.0482 18.15 10.4666 18.3333 10.9268 18.3333C11.387 18.3333 11.8054 18.15 12.1066 17.8417L17.9638 12.0083C18.2734 11.7083 18.4575 11.2917 18.4575 10.8333C18.4575 10.375 18.265 9.95 17.9638 9.65ZM10.9268 16.675L3.39609 9.16667V3.33334H9.2533V3.32501L16.784 10.825L10.9268 16.675Z" fill="#BD0017"/>
<path d="M5.48795 6.66667C6.18113 6.66667 6.74307 6.10703 6.74307 5.41667C6.74307 4.72632 6.18113 4.16667 5.48795 4.16667C4.79477 4.16667 4.23283 4.72632 4.23283 5.41667C4.23283 6.10703 4.79477 6.66667 5.48795 6.66667Z" fill="#BD0017"/>
</g>
<defs>
<clipPath id="clip0_1_4335">
<rect width="20.0819" height="20" fill="white" transform="translate(0.0491142)"/>
</clipPath>
</defs>
</svg>
